<mxfile host="app.diagrams.net" agent="Mozilla/5.0 (X11; Linux x86_64) AppleWebKit/537.36 (KHTML, like Gecko) Chrome/131.0.0.0 Safari/537.36" version="24.8.6">
  <diagram name="Pagina-1" id="DntSCb9K8KLhy4p5Sk85">
    <mxGraphModel dx="1687" dy="1072" grid="1" gridSize="10" guides="1" tooltips="1" connect="1" arrows="1" fold="1" page="1" pageScale="1" pageWidth="827" pageHeight="1169" math="0" shadow="0">
      <root>
        <mxCell id="0" />
        <mxCell id="1" parent="0" />
        <mxCell id="eIqLt3LLGjhnTMPGdRcQ-2" value="" style="swimlane;childLayout=stackLayout;resizeParent=1;resizeParentMax=0;startSize=20;html=1;" vertex="1" parent="1">
          <mxGeometry x="120.00000000000045" y="90" width="550" height="480" as="geometry" />
        </mxCell>
        <mxCell id="eIqLt3LLGjhnTMPGdRcQ-3" value="CRUD Operation" style="swimlane;startSize=30;html=1;" vertex="1" parent="eIqLt3LLGjhnTMPGdRcQ-2">
          <mxGeometry y="20" width="140" height="460" as="geometry" />
        </mxCell>
        <mxCell id="eIqLt3LLGjhnTMPGdRcQ-6" value="READ" style="rounded=1;whiteSpace=wrap;html=1;" vertex="1" parent="eIqLt3LLGjhnTMPGdRcQ-3">
          <mxGeometry x="20" y="40" width="100" height="40" as="geometry" />
        </mxCell>
        <mxCell id="eIqLt3LLGjhnTMPGdRcQ-12" value="READ &amp;lt;id&amp;gt;" style="rounded=1;whiteSpace=wrap;html=1;" vertex="1" parent="eIqLt3LLGjhnTMPGdRcQ-3">
          <mxGeometry x="20" y="100" width="100" height="40" as="geometry" />
        </mxCell>
        <mxCell id="eIqLt3LLGjhnTMPGdRcQ-16" value="CREATE" style="rounded=1;whiteSpace=wrap;html=1;" vertex="1" parent="eIqLt3LLGjhnTMPGdRcQ-3">
          <mxGeometry x="20" y="160" width="100" height="40" as="geometry" />
        </mxCell>
        <mxCell id="eIqLt3LLGjhnTMPGdRcQ-22" value="UPDATE" style="rounded=1;whiteSpace=wrap;html=1;" vertex="1" parent="eIqLt3LLGjhnTMPGdRcQ-3">
          <mxGeometry x="20" y="220" width="100" height="40" as="geometry" />
        </mxCell>
        <mxCell id="eIqLt3LLGjhnTMPGdRcQ-4" value="API Layer&lt;div&gt;(View)&lt;/div&gt;" style="swimlane;startSize=30;html=1;" vertex="1" parent="eIqLt3LLGjhnTMPGdRcQ-2">
          <mxGeometry x="140" y="20" width="120" height="460" as="geometry" />
        </mxCell>
        <mxCell id="eIqLt3LLGjhnTMPGdRcQ-8" value="GET /&amp;lt;resource&amp;gt;" style="rounded=1;whiteSpace=wrap;html=1;" vertex="1" parent="eIqLt3LLGjhnTMPGdRcQ-4">
          <mxGeometry x="19.999999999999545" y="40" width="80" height="40" as="geometry" />
        </mxCell>
        <mxCell id="eIqLt3LLGjhnTMPGdRcQ-13" value="GET&lt;div&gt;/&amp;lt;resource&amp;gt;/&amp;lt;id&amp;gt;&lt;/div&gt;" style="rounded=1;whiteSpace=wrap;html=1;" vertex="1" parent="eIqLt3LLGjhnTMPGdRcQ-4">
          <mxGeometry x="10" y="100" width="100" height="40" as="geometry" />
        </mxCell>
        <mxCell id="eIqLt3LLGjhnTMPGdRcQ-18" value="POST&lt;div&gt;/&amp;lt;resource&amp;gt;&lt;/div&gt;" style="rounded=1;whiteSpace=wrap;html=1;" vertex="1" parent="eIqLt3LLGjhnTMPGdRcQ-4">
          <mxGeometry x="10" y="160" width="100" height="40" as="geometry" />
        </mxCell>
        <mxCell id="eIqLt3LLGjhnTMPGdRcQ-5" value="Object Layer&lt;div&gt;(Model)&lt;/div&gt;" style="swimlane;startSize=30;html=1;" vertex="1" parent="eIqLt3LLGjhnTMPGdRcQ-2">
          <mxGeometry x="260" y="20" width="120" height="460" as="geometry" />
        </mxCell>
        <mxCell id="eIqLt3LLGjhnTMPGdRcQ-9" value="Collection&lt;div&gt;get_all()&lt;/div&gt;" style="rounded=1;whiteSpace=wrap;html=1;" vertex="1" parent="eIqLt3LLGjhnTMPGdRcQ-5">
          <mxGeometry x="19.999999999999545" y="40" width="80" height="40" as="geometry" />
        </mxCell>
        <mxCell id="eIqLt3LLGjhnTMPGdRcQ-14" value="Collection&lt;div&gt;get(id)&lt;/div&gt;" style="rounded=1;whiteSpace=wrap;html=1;" vertex="1" parent="eIqLt3LLGjhnTMPGdRcQ-5">
          <mxGeometry x="20" y="100" width="80" height="40" as="geometry" />
        </mxCell>
        <mxCell id="eIqLt3LLGjhnTMPGdRcQ-19" value="Collection&lt;div&gt;new_element()&lt;/div&gt;" style="rounded=1;whiteSpace=wrap;html=1;" vertex="1" parent="eIqLt3LLGjhnTMPGdRcQ-5">
          <mxGeometry x="20" y="160" width="80" height="40" as="geometry" />
        </mxCell>
        <mxCell id="eIqLt3LLGjhnTMPGdRcQ-7" value="DB Layer" style="swimlane;startSize=30;html=1;" vertex="1" parent="eIqLt3LLGjhnTMPGdRcQ-2">
          <mxGeometry x="380" y="20" width="170" height="460" as="geometry" />
        </mxCell>
        <mxCell id="eIqLt3LLGjhnTMPGdRcQ-10" value="INSERT INTO TABLE" style="rounded=1;whiteSpace=wrap;html=1;" vertex="1" parent="eIqLt3LLGjhnTMPGdRcQ-7">
          <mxGeometry x="30" y="160" width="125" height="40" as="geometry" />
        </mxCell>
        <mxCell id="eIqLt3LLGjhnTMPGdRcQ-15" value="SELECT FROM TABLE" style="rounded=1;whiteSpace=wrap;html=1;" vertex="1" parent="eIqLt3LLGjhnTMPGdRcQ-7">
          <mxGeometry x="37.5" y="40" width="110" height="40" as="geometry" />
        </mxCell>
        <mxCell id="eIqLt3LLGjhnTMPGdRcQ-21" value="SELECT FROM TABLE&lt;div&gt;WHERE PKEY = :ID&lt;/div&gt;" style="rounded=1;whiteSpace=wrap;html=1;" vertex="1" parent="eIqLt3LLGjhnTMPGdRcQ-7">
          <mxGeometry x="30" y="100" width="125" height="40" as="geometry" />
        </mxCell>
      </root>
    </mxGraphModel>
  </diagram>
</mxfile>
